<svg width="108" height="22" viewBox="0 0 108 22" fill="none" xmlns="http://www.w3.org/2000/svg">
<g clip-path="url(#clip0_0_501)">
<path d="M29.312 16V4.72H33.296C35.152 4.72 36.5813 5.20533 37.584 6.176C38.5973 7.14667 39.104 8.53867 39.104 10.352C39.104 12.1653 38.5973 13.5627 37.584 14.544C36.5813 15.5147 35.152 16 33.296 16H29.312ZM30.976 14.608H33.2C35.984 14.608 37.376 13.1893 37.376 10.352C37.376 7.52533 35.984 6.112 33.2 6.112H30.976V14.608ZM43.6476 16.144C43.1036 16.144 42.6183 16.0373 42.1916 15.824C41.765 15.6107 41.4236 15.3227 41.1676 14.96C40.9223 14.5973 40.7996 14.1867 40.7996 13.728C40.7996 13.152 40.9436 12.6987 41.2316 12.368C41.5303 12.0373 42.0156 11.7973 42.6876 11.648C43.3703 11.4987 44.2876 11.424 45.4396 11.424H45.9836V11.008C45.9836 10.4 45.8556 9.96267 45.5996 9.696C45.3436 9.42933 44.9223 9.296 44.3356 9.296C43.8876 9.296 43.4396 9.36533 42.9916 9.504C42.5436 9.632 42.085 9.84 41.6156 10.128L41.1196 8.992C41.525 8.704 42.0316 8.47467 42.6396 8.304C43.2476 8.13333 43.829 8.048 44.3836 8.048C45.4503 8.048 46.2396 8.304 46.7516 8.816C47.2636 9.31733 47.5196 10.1067 47.5196 11.184V16H45.9996V14.704C45.8076 15.152 45.509 15.504 45.1036 15.76C44.6983 16.016 44.213 16.144 43.6476 16.144ZM43.9676 14.992C44.5436 14.992 45.0236 14.7893 45.4076 14.384C45.7916 13.9787 45.9836 13.4667 45.9836 12.848V12.416H45.4556C44.677 12.416 44.0636 12.4533 43.6156 12.528C43.1783 12.6027 42.8636 12.7307 42.6716 12.912C42.4903 13.0827 42.3996 13.3227 42.3996 13.632C42.3996 14.0373 42.5383 14.368 42.8156 14.624C43.093 14.8693 43.477 14.992 43.9676 14.992ZM49.7454 16V8.192H51.3134V9.584C51.7187 8.656 52.5614 8.13867 53.8414 8.032L54.3694 8L54.4814 9.376L53.5054 9.472C52.0867 9.61067 51.3774 10.3413 51.3774 11.664V16H49.7454ZM55.7141 16V4.72H57.3301V11.6H57.3621L60.7541 8.192H62.7541L59.0101 11.952L63.0421 16H61.0261L57.3621 12.432H57.3301V16H55.7141ZM68.3753 16V4.72H69.7673L73.9433 12.512L78.1033 4.72H79.4633V16H77.9753V7.728L74.4393 14.272H73.4313L69.8793 7.76V16H68.3753ZM85.3405 16.144C84.5512 16.144 83.8685 15.9787 83.2925 15.648C82.7165 15.3173 82.2685 14.8533 81.9485 14.256C81.6392 13.648 81.4845 12.928 81.4845 12.096C81.4845 11.264 81.6392 10.5493 81.9485 9.952C82.2685 9.344 82.7165 8.87467 83.2925 8.544C83.8685 8.21333 84.5512 8.048 85.3405 8.048C86.1085 8.048 86.7805 8.21333 87.3565 8.544C87.9325 8.87467 88.3805 9.344 88.7005 9.952C89.0205 10.5493 89.1805 11.264 89.1805 12.096C89.1805 12.928 89.0205 13.648 88.7005 14.256C88.3805 14.8533 87.9325 15.3173 87.3565 15.648C86.7805 15.9787 86.1085 16.144 85.3405 16.144ZM85.3405 14.896C86.0018 14.896 86.5352 14.656 86.9405 14.176C87.3458 13.696 87.5485 13.0027 87.5485 12.096C87.5485 11.1893 87.3458 10.5013 86.9405 10.032C86.5352 9.552 86.0018 9.312 85.3405 9.312C84.6685 9.312 84.1298 9.552 83.7245 10.032C83.3192 10.5013 83.1165 11.1893 83.1165 12.096C83.1165 13.0027 83.3192 13.696 83.7245 14.176C84.1298 14.656 84.6685 14.896 85.3405 14.896ZM93.9714 16.144C93.2887 16.144 92.686 15.984 92.1634 15.664C91.6514 15.3333 91.2514 14.864 90.9634 14.256C90.6754 13.648 90.5314 12.928 90.5314 12.096C90.5314 11.264 90.6754 10.5493 90.9634 9.952C91.2514 9.344 91.6514 8.87467 92.1634 8.544C92.6754 8.21333 93.278 8.048 93.9714 8.048C94.558 8.048 95.0807 8.176 95.5394 8.432C95.998 8.688 96.3394 9.03467 96.5634 9.472V4.72H98.1794V16H96.5954V14.64C96.3714 15.1093 96.0247 15.4773 95.5554 15.744C95.0967 16.0107 94.5687 16.144 93.9714 16.144ZM94.3874 14.896C95.0487 14.896 95.582 14.656 95.9874 14.176C96.3927 13.696 96.5954 13.0027 96.5954 12.096C96.5954 11.1893 96.3927 10.5013 95.9874 10.032C95.582 9.552 95.0487 9.312 94.3874 9.312C93.7154 9.312 93.1767 9.552 92.7714 10.032C92.366 10.5013 92.1634 11.1893 92.1634 12.096C92.1634 13.0027 92.366 13.696 92.7714 14.176C93.1767 14.656 93.7154 14.896 94.3874 14.896ZM104.113 16.144C102.833 16.144 101.825 15.7867 101.089 15.072C100.353 14.3467 99.9845 13.36 99.9845 12.112C99.9845 11.312 100.145 10.608 100.465 10C100.795 9.38133 101.249 8.90133 101.825 8.56C102.401 8.21867 103.062 8.048 103.809 8.048C104.886 8.048 105.734 8.39467 106.353 9.088C106.971 9.77067 107.281 10.7147 107.281 11.92V12.464H101.553C101.67 14.0853 102.529 14.896 104.129 14.896C104.577 14.896 105.014 14.8267 105.441 14.688C105.878 14.5493 106.289 14.32 106.673 14L107.153 15.12C106.801 15.44 106.347 15.6907 105.793 15.872C105.238 16.0533 104.678 16.144 104.113 16.144ZM103.873 9.184C103.201 9.184 102.667 9.392 102.273 9.808C101.878 10.224 101.638 10.7787 101.553 11.472H105.921C105.889 10.7467 105.697 10.1867 105.345 9.792C104.993 9.38667 104.502 9.184 103.873 9.184Z" fill="#111517"/>
<path fill-rule="evenodd" clip-rule="evenodd" d="M13.5532 13.815C9.66857 13.815 6.51929 10.9278 6.51929 7.36821C6.51929 6.0253 6.96679 4.78158 7.73143 3.75C4.69036 4.69515 2.5 7.33122 2.5 10.4381C2.5 14.3385 5.94929 17.5 10.2036 17.5C13.5929 17.5 16.4696 15.4932 17.5 12.7045C16.375 13.4048 15.0161 13.815 13.5532 13.815Z" fill="white" stroke="#111517" stroke-width="1.25"/>
</g>
<defs>
<clipPath id="clip0_0_501">
<rect width="108" height="22" fill="white"/>
</clipPath>
</defs>
</svg>
